<svg xmlns="http://www.w3.org/2000/svg" style="cursor: move; touch-action: none;" width="1536" height="728"><g transform="translate(195.42240759391723,170.14255613578948) scale(0.6372803136596308)"><path class="link" style="stroke-width: 0.5px; stroke-opacity: 1; stroke: rgb(80, 80, 80);" marker-end="" d="M608,54, 788,334"></path><path class="link" style="stroke-width: 0.5px; stroke-opacity: 1; stroke: rgb(80, 80, 80);" marker-end="" d="M608,54, 788,374"></path><path class="link" style="stroke-width: 0.5px; stroke-opacity: 1; stroke: rgb(80, 80, 80);" marker-end="" d="M608,54, 788,414"></path><path class="link" style="stroke-width: 0.5px; stroke-opacity: 1; stroke: rgb(80, 80, 80);" marker-end="" d="M608,94, 788,334"></path><path class="link" style="stroke-width: 0.5px; stroke-opacity: 1; stroke: rgb(80, 80, 80);" marker-end="" d="M608,94, 788,374"></path><path class="link" style="stroke-width: 0.5px; stroke-opacity: 1; stroke: rgb(80, 80, 80);" marker-end="" d="M608,94, 788,414"></path><path class="link" style="stroke-width: 0.5px; stroke-opacity: 1; stroke: rgb(80, 80, 80);" marker-end="" d="M608,134, 788,334"></path><path class="link" style="stroke-width: 0.5px; stroke-opacity: 1; stroke: rgb(80, 80, 80);" marker-end="" d="M608,134, 788,374"></path><path class="link" style="stroke-width: 0.5px; stroke-opacity: 1; stroke: rgb(80, 80, 80);" marker-end="" d="M608,134, 788,414"></path><path class="link" style="stroke-width: 0.5px; stroke-opacity: 1; stroke: rgb(80, 80, 80);" marker-end="" d="M608,174, 788,334"></path><path class="link" style="stroke-width: 0.5px; stroke-opacity: 1; stroke: rgb(80, 80, 80);" marker-end="" d="M608,174, 788,374"></path><path class="link" style="stroke-width: 0.5px; stroke-opacity: 1; stroke: rgb(80, 80, 80);" marker-end="" d="M608,174, 788,414"></path><path class="link" style="stroke-width: 0.5px; stroke-opacity: 1; stroke: rgb(80, 80, 80);" marker-end="" d="M608,214, 788,334"></path><path class="link" style="stroke-width: 0.5px; stroke-opacity: 1; stroke: rgb(80, 80, 80);" marker-end="" d="M608,214, 788,374"></path><path class="link" style="stroke-width: 0.5px; stroke-opacity: 1; stroke: rgb(80, 80, 80);" marker-end="" d="M608,214, 788,414"></path><path class="link" style="stroke-width: 0.5px; stroke-opacity: 1; stroke: rgb(80, 80, 80);" marker-end="" d="M608,254, 788,334"></path><path class="link" style="stroke-width: 0.5px; stroke-opacity: 1; stroke: rgb(80, 80, 80);" marker-end="" d="M608,254, 788,374"></path><path class="link" style="stroke-width: 0.5px; stroke-opacity: 1; stroke: rgb(80, 80, 80);" marker-end="" d="M608,254, 788,414"></path><path class="link" style="stroke-width: 0.5px; stroke-opacity: 1; stroke: rgb(80, 80, 80);" marker-end="" d="M608,294, 788,334"></path><path class="link" style="stroke-width: 0.5px; stroke-opacity: 1; stroke: rgb(80, 80, 80);" marker-end="" d="M608,294, 788,374"></path><path class="link" style="stroke-width: 0.5px; stroke-opacity: 1; stroke: rgb(80, 80, 80);" marker-end="" d="M608,294, 788,414"></path><path class="link" style="stroke-width: 0.5px; stroke-opacity: 1; stroke: rgb(80, 80, 80);" marker-end="" d="M608,334, 788,334"></path><path class="link" style="stroke-width: 0.5px; stroke-opacity: 1; stroke: rgb(80, 80, 80);" marker-end="" d="M608,334, 788,374"></path><path class="link" style="stroke-width: 0.5px; stroke-opacity: 1; stroke: rgb(80, 80, 80);" marker-end="" d="M608,334, 788,414"></path><path class="link" style="stroke-width: 0.5px; stroke-opacity: 1; stroke: rgb(80, 80, 80);" marker-end="" d="M608,374, 788,334"></path><path class="link" style="stroke-width: 0.5px; stroke-opacity: 1; stroke: rgb(80, 80, 80);" marker-end="" d="M608,374, 788,374"></path><path class="link" style="stroke-width: 0.5px; stroke-opacity: 1; stroke: rgb(80, 80, 80);" marker-end="" d="M608,374, 788,414"></path><path class="link" style="stroke-width: 0.5px; stroke-opacity: 1; stroke: rgb(80, 80, 80);" marker-end="" d="M608,414, 788,334"></path><path class="link" style="stroke-width: 0.5px; stroke-opacity: 1; stroke: rgb(80, 80, 80);" marker-end="" d="M608,414, 788,374"></path><path class="link" style="stroke-width: 0.5px; stroke-opacity: 1; stroke: rgb(80, 80, 80);" marker-end="" d="M608,414, 788,414"></path><path class="link" style="stroke-width: 0.5px; stroke-opacity: 1; stroke: rgb(80, 80, 80);" marker-end="" d="M608,454, 788,334"></path><path class="link" style="stroke-width: 0.5px; stroke-opacity: 1; stroke: rgb(80, 80, 80);" marker-end="" d="M608,454, 788,374"></path><path class="link" style="stroke-width: 0.5px; stroke-opacity: 1; stroke: rgb(80, 80, 80);" marker-end="" d="M608,454, 788,414"></path><path class="link" style="stroke-width: 0.5px; stroke-opacity: 1; stroke: rgb(80, 80, 80);" marker-end="" d="M608,494, 788,334"></path><path class="link" style="stroke-width: 0.5px; stroke-opacity: 1; stroke: rgb(80, 80, 80);" marker-end="" d="M608,494, 788,374"></path><path class="link" style="stroke-width: 0.5px; stroke-opacity: 1; stroke: rgb(80, 80, 80);" marker-end="" d="M608,494, 788,414"></path><path class="link" style="stroke-width: 0.5px; stroke-opacity: 1; stroke: rgb(80, 80, 80);" marker-end="" d="M608,534, 788,334"></path><path class="link" style="stroke-width: 0.5px; stroke-opacity: 1; stroke: rgb(80, 80, 80);" marker-end="" d="M608,534, 788,374"></path><path class="link" style="stroke-width: 0.5px; stroke-opacity: 1; stroke: rgb(80, 80, 80);" marker-end="" d="M608,534, 788,414"></path><path class="link" style="stroke-width: 0.5px; stroke-opacity: 1; stroke: rgb(80, 80, 80);" marker-end="" d="M608,574, 788,334"></path><path class="link" style="stroke-width: 0.5px; stroke-opacity: 1; stroke: rgb(80, 80, 80);" marker-end="" d="M608,574, 788,374"></path><path class="link" style="stroke-width: 0.5px; stroke-opacity: 1; stroke: rgb(80, 80, 80);" marker-end="" d="M608,574, 788,414"></path><path class="link" style="stroke-width: 0.5px; stroke-opacity: 1; stroke: rgb(80, 80, 80);" marker-end="" d="M608,614, 788,334"></path><path class="link" style="stroke-width: 0.5px; stroke-opacity: 1; stroke: rgb(80, 80, 80);" marker-end="" d="M608,614, 788,374"></path><path class="link" style="stroke-width: 0.5px; stroke-opacity: 1; stroke: rgb(80, 80, 80);" marker-end="" d="M608,614, 788,414"></path><path class="link" style="stroke-width: 0.5px; stroke-opacity: 1; stroke: rgb(80, 80, 80);" marker-end="" d="M608,654, 788,334"></path><path class="link" style="stroke-width: 0.5px; stroke-opacity: 1; stroke: rgb(80, 80, 80);" marker-end="" d="M608,654, 788,374"></path><path class="link" style="stroke-width: 0.5px; stroke-opacity: 1; stroke: rgb(80, 80, 80);" marker-end="" d="M608,654, 788,414"></path><path class="link" style="stroke-width: 0.5px; stroke-opacity: 1; stroke: rgb(80, 80, 80);" marker-end="" d="M788,294, 968,354"></path><path class="link" style="stroke-width: 0.5px; stroke-opacity: 1; stroke: rgb(80, 80, 80);" marker-end="" d="M788,334, 968,354"></path><path class="link" style="stroke-width: 0.5px; stroke-opacity: 1; stroke: rgb(80, 80, 80);" marker-end="" d="M788,374, 968,354"></path><path class="link" style="stroke-width: 0.5px; stroke-opacity: 1; stroke: rgb(80, 80, 80);" marker-end="" d="M788,414, 968,354"></path><circle r="10" class="node" id="0_0" style="fill: rgb(255, 255, 255); stroke: rgb(51, 51, 51);" cx="608" cy="54"></circle><circle r="10" class="node" id="0_1" style="fill: rgb(255, 255, 255); stroke: rgb(51, 51, 51);" cx="608" cy="94"></circle><circle r="10" class="node" id="0_2" style="fill: rgb(255, 255, 255); stroke: rgb(51, 51, 51);" cx="608" cy="134"></circle><circle r="10" class="node" id="0_3" style="fill: rgb(255, 255, 255); stroke: rgb(51, 51, 51);" cx="608" cy="174"></circle><circle r="10" class="node" id="0_4" style="fill: rgb(255, 255, 255); stroke: rgb(51, 51, 51);" cx="608" cy="214"></circle><circle r="10" class="node" id="0_5" style="fill: rgb(255, 255, 255); stroke: rgb(51, 51, 51);" cx="608" cy="254"></circle><circle r="10" class="node" id="0_6" style="fill: rgb(255, 255, 255); stroke: rgb(51, 51, 51);" cx="608" cy="294"></circle><circle r="10" class="node" id="0_7" style="fill: rgb(255, 255, 255); stroke: rgb(51, 51, 51);" cx="608" cy="334"></circle><circle r="10" class="node" id="0_8" style="fill: rgb(255, 255, 255); stroke: rgb(51, 51, 51);" cx="608" cy="374"></circle><circle r="10" class="node" id="0_9" style="fill: rgb(255, 255, 255); stroke: rgb(51, 51, 51);" cx="608" cy="414"></circle><circle r="10" class="node" id="0_10" style="fill: rgb(255, 255, 255); stroke: rgb(51, 51, 51);" cx="608" cy="454"></circle><circle r="10" class="node" id="0_11" style="fill: rgb(255, 255, 255); stroke: rgb(51, 51, 51);" cx="608" cy="494"></circle><circle r="10" class="node" id="0_12" style="fill: rgb(255, 255, 255); stroke: rgb(51, 51, 51);" cx="608" cy="534"></circle><circle r="10" class="node" id="0_13" style="fill: rgb(255, 255, 255); stroke: rgb(51, 51, 51);" cx="608" cy="574"></circle><circle r="10" class="node" id="0_14" style="fill: rgb(255, 255, 255); stroke: rgb(51, 51, 51);" cx="608" cy="614"></circle><circle r="10" class="node" id="0_15" style="fill: rgb(255, 255, 255); stroke: rgb(51, 51, 51);" cx="608" cy="654"></circle><circle r="10" class="node" id="1_0" style="fill: rgb(255, 255, 255); stroke: rgb(51, 51, 51);" cx="788" cy="294"></circle><circle r="10" class="node" id="1_1" style="fill: rgb(255, 255, 255); stroke: rgb(51, 51, 51);" cx="788" cy="334"></circle><circle r="10" class="node" id="1_2" style="fill: rgb(255, 255, 255); stroke: rgb(51, 51, 51);" cx="788" cy="374"></circle><circle r="10" class="node" id="1_3" style="fill: rgb(255, 255, 255); stroke: rgb(51, 51, 51);" cx="788" cy="414"></circle><circle r="10" class="node" id="2_0" style="fill: rgb(255, 255, 255); stroke: rgb(51, 51, 51);" cx="968" cy="354"></circle><text class="text" dy=".35em" style="font-size: 12px;" x="573" y="694"></text><text class="text" dy=".35em" style="font-size: 12px;" x="753" y="694"></text><text class="text" dy=".35em" style="font-size: 12px;" x="933" y="694"></text></g><defs><marker id="arrow" viewBox="0 -5 10 10" markerWidth="7" markerHeight="7" orient="auto" refX="40"><path d="M0,-5L10,0L0,5" style="stroke: rgb(80, 80, 80); fill: none;"></path></marker></defs></svg>